# xmcd
#
# Track frame offsets:
#	150
#	18790
#	34137
#	53099
#	71073
#	87398
#	104351
#	119760
#	134159
#	150525
#	170792
#	185797
#	205611
#	219840
#	233989
#	250897
#	264376
#
# Disc length: 3724 seconds
# Revision: 0
# Processed by: cddbd v1.5.2PL0 Copyright (c) Steve Scherf et al.
# Submitted via: dBpowerAMP V12.0
#
DISCID=f90e8a11
DTITLE=Various Artist - CDX 458 September 2008
DYEAR=2008
DGENRE=Country
TTITLE0=Alan Jackson - Country Boy
TTITLE1=Dierks Bentley - Feel That Fire
TTITLE2=Rio Grand - God's Got A Bigger Plan
TTITLE3=Rascal Flatts - Here
TTITLE4=The Road Hammers - I've Got The Scars To Prove It
TTITLE5=Jessica Simpson - Remember That
TTITLE6=Gary Allan - She's So California
TTITLE7=Mark Wills - The Things We Forget
TTITLE8=Frizzel, David and T. Grah - Got To Get To Louisiana
TTITLE9=Frizzel, David and T. Grah - Ordinary Joe
TTITLE10=Leona Williams - Workin' Girl Blues
TTITLE11=Alex Woodard - Halfway
TTITLE12=John Reinhardt - Here Today Gone To Maui
TTITLE13=Katy Kiefer - Girls With Tattoos
TTITLE14=Austin Law - Neon Halo
TTITLE15=Cory Walker - Wanda Rides A Honda
TTITLE16=Timothy Craig - You Got It
EXTD=
EXTT0=
EXTT1=
EXTT2=
EXTT3=
EXTT4=
EXTT5=
EXTT6=
EXTT7=
EXTT8=
EXTT9=
EXTT10=
EXTT11=
EXTT12=
EXTT13=
EXTT14=
EXTT15=
EXTT16=
PLAYORDER=
